<?xml version="1.0" encoding="UTF-8"?>
<!DOCTYPE svg PUBLIC "-//W3C//DTD SVG 1.1//EN" "http://www.w3.org/Graphics/SVG/1.1/DTD/svg11.dtd">
<svg xmlns="http://www.w3.org/2000/svg" version="1.1" width="512px" height="512px" style="shape-rendering:geometricPrecision; text-rendering:geometricPrecision; image-rendering:optimizeQuality; fill-rule:evenodd; clip-rule:evenodd" xmlns:xlink="http://www.w3.org/1999/xlink">
<g><path style="opacity:0.982" fill="#272727" d="M 258.5,4.5 C 260.167,5.83333 261.833,5.83333 263.5,4.5C 267.548,4.39458 271.548,4.72791 275.5,5.5C 278.167,5.5 280.833,5.5 283.5,5.5C 286.833,5.5 290.167,5.5 293.5,5.5C 296.5,6.83333 299.5,6.83333 302.5,5.5C 311.023,5.16363 319.523,4.49697 328,3.5C 340.668,3.83405 350.668,9.16738 358,19.5C 361.29,25.3743 363.79,31.541 365.5,38C 368.706,38.2963 371.872,38.7963 375,39.5C 392.794,36.981 410.627,36.481 428.5,38C 438.744,39.9156 445.578,45.749 449,55.5C 450.069,77.6494 450.569,99.816 450.5,122C 449.409,243.175 449.243,364.341 450,485.5C 447.098,496.734 439.932,503.567 428.5,506C 415.52,509.166 402.52,509.333 389.5,506.5C 379.907,506.68 370.241,506.68 360.5,506.5C 358.167,505.167 355.833,505.167 353.5,506.5C 347.5,506.5 341.5,506.5 335.5,506.5C 333.167,505.167 330.833,505.167 328.5,506.5C 281.206,506.913 233.873,507.58 186.5,508.5C 159.489,508.148 132.489,507.481 105.5,506.5C 103.393,505.532 101.059,505.198 98.5,505.5C 95.0613,505.747 91.728,505.414 88.5,504.5C 85.1933,503.949 81.8599,503.616 78.5,503.5C 68.9631,505.137 63.4631,501.137 62,491.5C 61.058,486.547 60.558,481.547 60.5,476.5C 61.8253,358.501 61.8253,240.501 60.5,122.5C 61.1757,99.8378 61.6757,77.1711 62,54.5C 65.3596,45.9681 71.5263,40.9681 80.5,39.5C 82.7354,39.7947 84.7354,39.4614 86.5,38.5C 95.4465,37.5556 104.447,37.2222 113.5,37.5C 114.398,30.3712 117.398,24.3712 122.5,19.5C 131.036,13.2322 140.369,8.56552 150.5,5.5C 186.438,0.664436 222.438,0.331103 258.5,4.5 Z M 201.5,9.5 C 206.263,9.22562 210.93,9.55896 215.5,10.5C 201.666,19.5873 187.333,27.9206 172.5,35.5C 180.395,28.2073 188.729,21.374 197.5,15C 199.464,13.549 200.797,11.7157 201.5,9.5 Z M 163.5,11.5 C 156.996,16.2552 149.996,20.2552 142.5,23.5C 144.474,20.5178 146.474,17.5178 148.5,14.5C 153.4,13.0251 158.4,12.0251 163.5,11.5 Z M 234.5,11.5 C 237.833,11.5 241.167,11.5 244.5,11.5C 230.834,20.0024 216.834,28.0024 202.5,35.5C 212.86,27.1467 223.527,19.1467 234.5,11.5 Z M 323.5,12.5 C 316.003,17.0831 308.337,21.4164 300.5,25.5C 305.337,16.2461 313.004,11.9128 323.5,12.5 Z M 337.5,17.5 C 338.694,18.2719 339.694,19.2719 340.5,20.5C 324.949,30.5703 323.949,29.5703 337.5,17.5 Z M 280.5,27.5 C 281.473,27.9867 282.473,28.4867 283.5,29C 281.959,30.3712 280.625,31.8712 279.5,33.5C 273.298,37.1009 266.964,40.4342 260.5,43.5C 260.5,42.5 260.5,41.5 260.5,40.5C 267.184,36.1405 273.851,31.8072 280.5,27.5 Z M 348.5,32.5 C 349.167,32.5 349.5,32.8333 349.5,33.5C 348.833,33.8333 348.167,34.1667 347.5,34.5C 347.328,33.5084 347.662,32.8417 348.5,32.5 Z M 306.5,34.5 C 305.833,35.8333 304.833,36.8333 303.5,37.5C 302.833,37.5 302.167,37.5 301.5,37.5C 302.659,35.7497 304.326,34.7497 306.5,34.5 Z M 88.5,45.5 C 91.5,45.5 94.5,45.5 97.5,45.5C 93.4235,48.2272 89.0902,50.5606 84.5,52.5C 85.5686,50.0313 86.9019,47.6979 88.5,45.5 Z M 365.5,46.5 C 368.5,46.5 371.5,46.5 374.5,46.5C 349.004,61.4162 323.337,76.0828 297.5,90.5C 315.317,78.0873 333.651,66.4206 352.5,55.5C 357.305,55.1106 360.638,52.7772 362.5,48.5C 363.71,48.0679 364.71,47.4013 365.5,46.5 Z M 428.5,49.5 C 429.795,50.4884 431.128,51.4884 432.5,52.5C 400.834,71.3356 368.834,89.6689 336.5,107.5C 366.877,87.8055 397.544,68.4722 428.5,49.5 Z M 112.5,50.5 C 112.5,51.5 112.5,52.5 112.5,53.5C 110.117,55.3582 107.45,56.6916 104.5,57.5C 107.126,55.1765 109.793,52.8432 112.5,50.5 Z M 271.5,51.5 C 271.5,52.1667 271.833,52.5 272.5,52.5C 268.836,55.3346 264.836,57.668 260.5,59.5C 263.952,56.6007 267.618,53.9341 271.5,51.5 Z M 325.5,51.5 C 326.167,53.5 327.5,54.8333 329.5,55.5C 318.998,62.588 307.998,68.9214 296.5,74.5C 296.5,72.8333 296.5,71.1667 296.5,69.5C 306.027,63.2385 315.694,57.2385 325.5,51.5 Z M 260.5,59.5 C 260.027,60.9063 259.027,61.573 257.5,61.5C 257.973,60.0937 258.973,59.427 260.5,59.5 Z M 437.5,61.5 C 437.5,63.1667 437.5,64.8333 437.5,66.5C 408.671,83.416 379.671,100.083 350.5,116.5C 379.295,97.9306 408.295,79.5973 437.5,61.5 Z M 73.5,70.5 C 74.1667,70.5 74.8333,70.5 75.5,70.5C 75.1667,71.5 74.5,72.1667 73.5,72.5C 73.5,71.8333 73.5,71.1667 73.5,70.5 Z M 436.5,79.5 C 436.5,80.5 436.5,81.5 436.5,82.5C 424.993,89.0875 413.326,95.4208 401.5,101.5C 412.625,93.4303 424.292,86.097 436.5,79.5 Z M 77.5,85.5 C 77.0269,86.9063 76.0269,87.573 74.5,87.5C 74.5,87.1667 74.5,86.8333 74.5,86.5C 75.391,85.8902 76.391,85.5569 77.5,85.5 Z M 99.5,87.5 C 99.0269,88.9063 98.0269,89.573 96.5,89.5C 96.9731,88.0937 97.9731,87.427 99.5,87.5 Z M 96.5,89.5 C 89.7619,95.9008 82.4285,101.568 74.5,106.5C 74.5,104.833 74.5,103.167 74.5,101.5C 81.5972,97.0699 88.9306,93.0699 96.5,89.5 Z M 436.5,106.5 C 436.5,107.833 436.5,109.167 436.5,110.5C 416.328,122.087 395.995,133.42 375.5,144.5C 395.321,131.085 415.655,118.419 436.5,106.5 Z M 88.5,112.5 C 88.0269,113.906 87.0269,114.573 85.5,114.5C 85.9731,113.094 86.9731,112.427 88.5,112.5 Z M 85.5,114.5 C 82.0484,117.399 78.3817,120.066 74.5,122.5C 74.5,121.5 74.5,120.5 74.5,119.5C 78.3163,118.091 81.9829,116.424 85.5,114.5 Z M 109.5,115.5 C 98.3627,124.238 86.6961,132.238 74.5,139.5C 74.5,137.833 74.5,136.167 74.5,134.5C 86.3264,128.421 97.9931,122.088 109.5,115.5 Z M 436.5,121.5 C 436.5,122.833 436.5,124.167 436.5,125.5C 418.301,136.099 399.968,146.432 381.5,156.5C 399.628,144.597 417.961,132.931 436.5,121.5 Z M 98.5,150.5 C 98.0269,151.906 97.0269,152.573 95.5,152.5C 95.9731,151.094 96.9731,150.427 98.5,150.5 Z M 95.5,152.5 C 89.053,157.898 82.053,162.564 74.5,166.5C 74.5,165.5 74.5,164.5 74.5,163.5C 81.3423,159.578 88.3423,155.912 95.5,152.5 Z M 144.5,155.5 C 138.446,160.217 132.113,164.55 125.5,168.5C 125.5,167.5 125.5,166.5 125.5,165.5C 131.702,161.899 138.036,158.566 144.5,155.5 Z M 112.5,157.5 C 112.5,158.167 112.5,158.833 112.5,159.5C 99.8333,167.167 87.1667,174.833 74.5,182.5C 74.5,181.167 74.5,179.833 74.5,178.5C 87.1667,171.5 99.8333,164.5 112.5,157.5 Z M 436.5,161.5 C 436.5,163.833 436.5,166.167 436.5,168.5C 398.798,190.684 360.798,212.351 322.5,233.5C 360.126,209.014 398.126,185.014 436.5,161.5 Z M 112.5,173.5 C 112.5,175.167 112.5,176.833 112.5,178.5C 99.5839,186.078 86.9173,194.078 74.5,202.5C 74.5,200.167 74.5,197.833 74.5,195.5C 87.1313,188.182 99.798,180.848 112.5,173.5 Z M 436.5,192.5 C 436.5,195.167 436.5,197.833 436.5,200.5C 396.5,223.167 356.5,245.833 316.5,268.5C 356.21,242.806 396.21,217.472 436.5,192.5 Z M 112.5,193.5 C 112.5,194.167 112.5,194.833 112.5,195.5C 99.8333,203.5 87.1667,211.5 74.5,219.5C 74.5,217.833 74.5,216.167 74.5,214.5C 86.8722,206.98 99.5388,199.98 112.5,193.5 Z M 374.5,160.5 C 374.027,161.906 373.027,162.573 371.5,162.5C 371.973,161.094 372.973,160.427 374.5,160.5 Z M 381.5,156.5 C 380.341,158.25 378.674,159.25 376.5,159.5C 377.659,157.75 379.326,156.75 381.5,156.5 Z M 375.5,144.5 C 374.341,146.25 372.674,147.25 370.5,147.5C 371.659,145.75 373.326,144.75 375.5,144.5 Z M 348.5,117.5 C 348.027,118.906 347.027,119.573 345.5,119.5C 345.973,118.094 346.973,117.427 348.5,117.5 Z M 336.5,107.5 C 336.027,108.906 335.027,109.573 333.5,109.5C 333.973,108.094 334.973,107.427 336.5,107.5 Z M 394.5,105.5 C 394.027,106.906 393.027,107.573 391.5,107.5C 391.973,106.094 392.973,105.427 394.5,105.5 Z M 401.5,101.5 C 400.341,103.25 398.674,104.25 396.5,104.5C 397.659,102.75 399.326,101.75 401.5,101.5 Z M 436.5,211.5 C 436.5,212.167 436.5,212.833 436.5,213.5C 435.833,213.5 435.167,213.5 434.5,213.5C 434.833,212.5 435.5,211.833 436.5,211.5 Z M 136.5,219.5 C 136.027,220.906 135.027,221.573 133.5,221.5C 133.973,220.094 134.973,219.427 136.5,219.5 Z M 133.5,221.5 C 131.178,223.664 128.511,225.331 125.5,226.5C 125.5,226.167 125.5,225.833 125.5,225.5C 127.883,223.642 130.55,222.308 133.5,221.5 Z M 112.5,231.5 C 112.5,232.833 112.5,234.167 112.5,235.5C 99.816,243.194 87.1493,250.86 74.5,258.5C 74.5,256.833 74.5,255.167 74.5,253.5C 87.1667,246.167 99.8333,238.833 112.5,231.5 Z M 322.5,233.5 C 321.341,235.25 319.674,236.25 317.5,236.5C 318.659,234.75 320.326,233.75 322.5,233.5 Z M 436.5,237.5 C 436.5,239.5 436.5,241.5 436.5,243.5C 404.5,261.5 372.5,279.5 340.5,297.5C 372.156,277.003 404.156,257.003 436.5,237.5 Z M 112.5,249.5 C 112.5,250.5 112.5,251.5 112.5,252.5C 99.816,260.194 87.1493,267.86 74.5,275.5C 74.5,273.833 74.5,272.167 74.5,270.5C 87.1837,263.472 99.8504,256.472 112.5,249.5 Z M 436.5,254.5 C 436.5,256.5 436.5,258.5 436.5,260.5C 404.074,279.594 371.407,298.261 338.5,316.5C 370.877,295.472 403.544,274.806 436.5,254.5 Z M 112.5,266.5 C 112.5,266.833 112.5,267.167 112.5,267.5C 99.8333,275.167 87.1667,282.833 74.5,290.5C 74.5,289.5 74.5,288.5 74.5,287.5C 87.1837,280.472 99.8504,273.472 112.5,266.5 Z M 316.5,268.5 C 316.027,269.906 315.027,270.573 313.5,270.5C 313.973,269.094 314.973,268.427 316.5,268.5 Z M 436.5,272.5 C 436.5,274.833 436.5,277.167 436.5,279.5C 399.407,301.261 362.074,322.594 324.5,343.5C 361.459,319.347 398.792,295.681 436.5,272.5 Z M 435.5,292.5 C 434.341,294.25 432.674,295.25 430.5,295.5C 431.659,293.75 433.326,292.75 435.5,292.5 Z M 111.5,293.5 C 111.5,294.167 111.5,294.833 111.5,295.5C 99.3345,303.417 87.0012,311.084 74.5,318.5C 74.5,317.167 74.5,315.833 74.5,314.5C 86.6709,307.247 99.0043,300.247 111.5,293.5 Z M 430.5,295.5 C 429.341,297.25 427.674,298.25 425.5,298.5C 426.659,296.75 428.326,295.75 430.5,295.5 Z M 340.5,297.5 C 339.341,299.25 337.674,300.25 335.5,300.5C 336.659,298.75 338.326,297.75 340.5,297.5 Z M 111.5,309.5 C 111.5,309.833 111.5,310.167 111.5,310.5C 99.4371,318.555 87.1038,326.222 74.5,333.5C 74.5,332.5 74.5,331.5 74.5,330.5C 86.663,323.25 98.9964,316.25 111.5,309.5 Z M 336.5,317.5 C 336.027,318.906 335.027,319.573 333.5,319.5C 333.973,318.094 334.973,317.427 336.5,317.5 Z M 149.5,325.5 C 150.167,325.5 150.833,325.5 151.5,325.5C 151.027,326.906 150.027,327.573 148.5,327.5C 148.833,326.833 149.167,326.167 149.5,325.5 Z M 148.5,327.5 C 141.045,333.067 133.379,338.401 125.5,343.5C 125.5,342.167 125.5,340.833 125.5,339.5C 127.674,339.25 129.341,338.25 130.5,336.5C 131.492,336.672 132.158,336.338 132.5,335.5C 134.674,335.25 136.341,334.25 137.5,332.5C 138.492,332.672 139.158,332.338 139.5,331.5C 141.674,331.25 143.341,330.25 144.5,328.5C 145.833,328.167 147.167,327.833 148.5,327.5 Z M 197.5,330.5 C 196.341,332.25 194.674,333.25 192.5,333.5C 193.659,331.75 195.326,330.75 197.5,330.5 Z M 192.5,333.5 C 189.35,336.579 185.683,338.913 181.5,340.5C 181.833,339.833 182.167,339.167 182.5,338.5C 185.55,336.308 188.883,334.642 192.5,333.5 Z M 322.5,344.5 C 322.027,345.906 321.027,346.573 319.5,346.5C 319.973,345.094 320.973,344.427 322.5,344.5 Z M 112.5,347.5 C 112.5,349.5 112.5,351.5 112.5,353.5C 100.332,361.085 87.9985,368.418 75.5,375.5C 75.5,373.167 75.5,370.833 75.5,368.5C 87.9684,361.765 100.302,354.765 112.5,347.5 Z M 75.5,355.5 C 76.1667,355.5 76.8333,355.5 77.5,355.5C 77.1667,356.5 76.5,357.167 75.5,357.5C 75.5,356.833 75.5,356.167 75.5,355.5 Z M 114.5,378.5 C 114.733,380.062 115.4,381.395 116.5,382.5C 102.167,391.167 87.8333,399.833 73.5,408.5C 74.2653,405.904 74.5987,403.237 74.5,400.5C 87.8333,393.167 101.167,385.833 114.5,378.5 Z M 436.5,381.5 C 436.5,383.167 436.5,384.833 436.5,386.5C 422.968,394.432 409.301,402.099 395.5,409.5C 408.956,399.932 422.623,390.599 436.5,381.5 Z M 180.5,384.5 C 180.027,385.906 179.027,386.573 177.5,386.5C 177.973,385.094 178.973,384.427 180.5,384.5 Z M 175.5,387.5 C 141.456,409.528 107.123,431.194 72.5,452.5C 72.5,450.5 72.5,448.5 72.5,446.5C 106.698,426.569 141.031,406.902 175.5,387.5 Z M 436.5,399.5 C 436.5,400.5 436.5,401.5 436.5,402.5C 427.634,407.766 418.634,412.766 409.5,417.5C 417.976,410.759 426.976,404.759 436.5,399.5 Z M 178.5,403.5 C 178.027,404.906 177.027,405.573 175.5,405.5C 175.973,404.094 176.973,403.427 178.5,403.5 Z M 173.5,406.5 C 140.54,427.986 107.207,448.986 73.5,469.5C 73.5,467.5 73.5,465.5 73.5,463.5C 106.85,444.472 140.184,425.472 173.5,406.5 Z M 395.5,409.5 C 395.027,410.906 394.027,411.573 392.5,411.5C 392.973,410.094 393.973,409.427 395.5,409.5 Z M 195.5,411.5 C 194.341,413.25 192.674,414.25 190.5,414.5C 191.659,412.75 193.326,411.75 195.5,411.5 Z M 190.5,414.5 C 152.874,438.986 114.874,462.986 76.5,486.5C 76.1667,484.5 75.8333,482.5 75.5,480.5C 113.662,458.251 151.996,436.251 190.5,414.5 Z M 436.5,415.5 C 436.5,416.5 436.5,417.5 436.5,418.5C 430.298,422.101 423.964,425.434 417.5,428.5C 423.554,423.783 429.887,419.45 436.5,415.5 Z M 78.5,418.5 C 77.3406,420.25 75.674,421.25 73.5,421.5C 73.5,421.167 73.5,420.833 73.5,420.5C 75.0495,419.559 76.7162,418.893 78.5,418.5 Z M 417.5,428.5 C 417.027,429.906 416.027,430.573 414.5,430.5C 414.973,429.094 415.973,428.427 417.5,428.5 Z M 436.5,431.5 C 436.5,433.167 436.5,434.833 436.5,436.5C 428.301,441.432 419.968,446.099 411.5,450.5C 419.525,443.814 427.859,437.481 436.5,431.5 Z M 436.5,449.5 C 436.5,450.167 436.5,450.833 436.5,451.5C 435.609,452.11 434.609,452.443 433.5,452.5C 434.167,451.167 435.167,450.167 436.5,449.5 Z M 297.5,461.5 C 297.027,462.906 296.027,463.573 294.5,463.5C 294.973,462.094 295.973,461.427 297.5,461.5 Z M 294.5,463.5 C 277.204,475.154 259.87,486.82 242.5,498.5C 239.5,498.5 236.5,498.5 233.5,498.5C 253.571,486.442 273.904,474.775 294.5,463.5 Z M 436.5,465.5 C 436.5,466.5 436.5,467.5 436.5,468.5C 435.167,468.833 433.833,469.167 432.5,469.5C 433.5,467.833 434.833,466.5 436.5,465.5 Z M 363.5,472.5 C 352.05,481.399 340.383,490.065 328.5,498.5C 325.167,498.5 321.833,498.5 318.5,498.5C 333.002,489.079 348.002,480.412 363.5,472.5 Z M 306.5,473.5 C 294.463,482.192 282.13,490.525 269.5,498.5C 267.5,498.5 265.5,498.5 263.5,498.5C 277.334,489.413 291.667,481.079 306.5,473.5 Z M 325.5,478.5 C 316.468,485.523 307.135,492.189 297.5,498.5C 295.167,498.5 292.833,498.5 290.5,498.5C 301.996,491.584 313.663,484.917 325.5,478.5 Z M 101.5,484.5 C 101.027,485.906 100.027,486.573 98.5,486.5C 98.9731,485.094 99.9731,484.427 101.5,484.5 Z M 397.5,485.5 C 392.821,490.178 387.821,494.511 382.5,498.5C 380.167,498.5 377.833,498.5 375.5,498.5C 382.496,493.666 389.829,489.333 397.5,485.5 Z M 98.5,486.5 C 97.3406,488.25 95.674,489.25 93.5,489.5C 94.6594,487.75 96.326,486.75 98.5,486.5 Z M 368.5,487.5 C 368.027,488.906 367.027,489.573 365.5,489.5C 365.973,488.094 366.973,487.427 368.5,487.5 Z M 413.5,498.5 C 410.167,498.5 406.833,498.5 403.5,498.5C 409.143,494.513 415.143,491.347 421.5,489C 418.707,492.105 416.04,495.272 413.5,498.5 Z M 93.5,489.5 C 90.2041,491.821 86.8708,494.154 83.5,496.5C 82.8333,496.5 82.5,496.167 82.5,495.5C 85.678,492.742 89.3447,490.742 93.5,489.5 Z M 365.5,489.5 C 362.149,492.848 358.482,495.848 354.5,498.5C 352.833,498.5 351.167,498.5 349.5,498.5C 354.502,494.997 359.835,491.997 365.5,489.5 Z"/></g>
<g><path style="opacity:0.673" fill="#e0014b" d="M 283.5,5.5 C 280.833,5.5 278.167,5.5 275.5,5.5C 278.167,2.83333 280.833,2.83333 283.5,5.5 Z"/></g>
<g><path style="opacity:0.843" fill="#d50447" d="M 150.5,5.5 C 140.369,8.56552 131.036,13.2322 122.5,19.5C 122.511,17.9826 123.177,16.8159 124.5,16C 130.997,12.5859 137.33,8.91923 143.5,5C 146.039,4.20419 148.372,4.37086 150.5,5.5 Z"/></g>
<g><path style="opacity:1" fill="#8d1a3b" d="M 263.5,4.5 C 261.833,5.83333 260.167,5.83333 258.5,4.5C 260.167,3.16667 261.833,3.16667 263.5,4.5 Z"/></g>
<g><path style="opacity:1" fill="#bf0944" d="M 302.5,5.5 C 299.5,6.83333 296.5,6.83333 293.5,5.5C 295.157,4.42453 296.991,3.75786 299,3.5C 300.699,3.38655 301.866,4.05322 302.5,5.5 Z"/></g>
<g><path style="opacity:0.995" fill="#dd094c" d="M 201.5,9.5 C 200.797,11.7157 199.464,13.549 197.5,15C 188.729,21.374 180.395,28.2073 172.5,35.5C 187.333,27.9206 201.666,19.5873 215.5,10.5C 222.022,10.1765 228.355,10.5098 234.5,11.5C 223.527,19.1467 212.86,27.1467 202.5,35.5C 216.834,28.0024 230.834,20.0024 244.5,11.5C 263.683,12.988 282.683,13.1547 301.5,12C 300.627,13.045 299.627,13.8783 298.5,14.5C 291.717,17.8781 285.717,22.2114 280.5,27.5C 273.851,31.8072 267.184,36.1405 260.5,40.5C 248.304,47.7618 236.637,55.7618 225.5,64.5C 233.259,60.591 240.926,56.4244 248.5,52C 252.742,49.3904 256.742,46.5571 260.5,43.5C 266.964,40.4342 273.298,37.1009 279.5,33.5C 283.059,31.5534 286.725,29.8867 290.5,28.5C 289.297,32.1101 288.297,35.7768 287.5,39.5C 281.86,43.1467 276.527,47.1467 271.5,51.5C 267.618,53.9341 263.952,56.6007 260.5,59.5C 258.973,59.427 257.973,60.0937 257.5,61.5C 256.508,61.3284 255.842,61.6618 255.5,62.5C 254.833,62.5 254.5,62.8333 254.5,63.5C 253.833,63.8333 253.167,64.1667 252.5,64.5C 251.833,64.5 251.5,64.8333 251.5,65.5C 244.052,69.7748 236.719,74.2748 229.5,79C 228.304,79.6543 228.304,80.1543 229.5,80.5C 247.943,69.3779 266.61,58.7112 285.5,48.5C 284.174,56.4438 283.174,64.4438 282.5,72.5C 261.277,86.0609 240.61,100.394 220.5,115.5C 239.963,105.269 258.963,94.2694 277.5,82.5C 278.167,82.5 278.5,82.1667 278.5,81.5C 278.833,81.5 279.167,81.5 279.5,81.5C 280.167,81.5 280.5,81.1667 280.5,80.5C 280.833,80.5 281.167,80.5 281.5,80.5C 281.5,84.1667 281.5,87.8333 281.5,91.5C 276.531,94.4775 271.865,97.8108 267.5,101.5C 271.728,99.9339 275.728,97.9339 279.5,95.5C 280.479,98.6248 280.813,101.958 280.5,105.5C 280.5,105.833 280.5,106.167 280.5,106.5C 263.479,117.342 246.812,128.675 230.5,140.5C 247.139,131.179 263.806,121.845 280.5,112.5C 280.5,116.167 280.5,119.833 280.5,123.5C 275.19,126.156 270.19,129.323 265.5,133C 270.66,131.087 275.66,128.587 280.5,125.5C 280.5,129.167 280.5,132.833 280.5,136.5C 263.529,147.99 246.529,159.49 229.5,171C 246.669,162.075 263.669,152.575 280.5,142.5C 281.479,145.625 281.813,148.958 281.5,152.5C 277.618,154.934 273.952,157.601 270.5,160.5C 274.017,158.576 277.684,156.909 281.5,155.5C 281.5,159.167 281.5,162.833 281.5,166.5C 260.277,180.061 239.61,194.394 219.5,209.5C 240.15,197.861 260.816,186.195 281.5,174.5C 282.479,177.625 282.813,180.958 282.5,184.5C 273.024,190.408 263.69,196.575 254.5,203C 263.866,198.482 273.199,193.649 282.5,188.5C 282.5,191.833 282.5,195.167 282.5,198.5C 270.195,206.656 257.862,214.823 245.5,223C 258.002,216.743 270.335,209.91 282.5,202.5C 283.491,208.979 283.824,215.646 283.5,222.5C 282.711,222.783 282.044,223.283 281.5,224C 283.362,227.149 284.029,230.649 283.5,234.5C 274.024,240.408 264.69,246.575 255.5,253C 256.908,253.315 258.241,252.982 259.5,252C 267.721,246.939 276.054,242.106 284.5,237.5C 284.5,241.167 284.5,244.833 284.5,248.5C 268.616,258.057 253.282,268.391 238.5,279.5C 254.073,271.262 269.406,262.595 284.5,253.5C 285.753,270.68 285.753,288.013 284.5,305.5C 282.704,306.793 281.037,308.293 279.5,310C 281.066,310.3 282.399,309.8 283.5,308.5C 282.746,313.463 282.413,318.463 282.5,323.5C 280.456,324.031 278.789,325.198 277.5,327C 279.459,326.903 281.125,326.07 282.5,324.5C 284.439,340.298 284.939,356.298 284,372.5C 283.359,374.813 282.026,376.48 280,377.5C 277.348,376.015 275.182,374.015 273.5,371.5C 275.258,368.663 276.425,365.663 277,362.5C 274.521,364.314 272.021,365.981 269.5,367.5C 263.5,363.5 258.5,358.5 254.5,352.5C 256.989,350.561 256.656,350.228 253.5,351.5C 250.8,349.766 248.8,347.432 247.5,344.5C 259.723,332.437 258.723,331.437 244.5,341.5C 242.196,338.859 239.862,336.192 237.5,333.5C 241.291,330.882 244.957,328.049 248.5,325C 244.47,326.805 240.47,328.972 236.5,331.5C 230.01,324.849 223.01,318.682 215.5,313C 210.726,309.271 205.393,307.938 199.5,309C 194.032,313.467 188.865,318.3 184,323.5C 170.867,338.301 157.367,352.801 143.5,367C 138.749,371.125 133.582,374.625 128,377.5C 125.843,376.615 125.01,374.948 125.5,372.5C 126.833,372.167 126.833,371.833 125.5,371.5C 125.5,367.833 125.5,364.167 125.5,360.5C 140.464,350.858 155.13,340.858 169.5,330.5C 154.5,338.331 139.834,346.664 125.5,355.5C 124.209,351.601 124.209,347.601 125.5,343.5C 133.379,338.401 141.045,333.067 148.5,327.5C 150.027,327.573 151.027,326.906 151.5,325.5C 150.833,325.5 150.167,325.5 149.5,325.5C 147.326,325.75 145.659,326.75 144.5,328.5C 142.326,328.75 140.659,329.75 139.5,331.5C 139.158,332.338 138.492,332.672 137.5,332.5C 135.326,332.75 133.659,333.75 132.5,335.5C 132.158,336.338 131.492,336.672 130.5,336.5C 128.326,336.75 126.659,337.75 125.5,339.5C 124.518,336.038 124.185,332.371 124.5,328.5C 134.617,322.223 144.617,315.723 154.5,309C 153.092,308.685 151.759,309.018 150.5,310C 142.467,315.35 134.133,320.183 125.5,324.5C 125.335,321.15 125.502,317.817 126,314.5C 126.5,314 127,313.5 127.5,313C 125.562,306.452 124.895,299.618 125.5,292.5C 137.378,284.734 149.044,276.734 160.5,268.5C 148.527,275.155 136.527,281.821 124.5,288.5C 124.5,284.833 124.5,281.167 124.5,277.5C 134.265,271.583 143.932,265.417 153.5,259C 152.092,258.685 150.759,259.018 149.5,260C 141.467,265.35 133.133,270.183 124.5,274.5C 124.5,270.833 124.5,267.167 124.5,263.5C 147.311,248.257 169.978,232.757 192.5,217C 191.092,216.685 189.759,217.018 188.5,218C 167.275,230.443 145.941,242.61 124.5,254.5C 125.536,246.869 125.536,239.203 124.5,231.5C 139.798,221.524 154.798,211.191 169.5,200.5C 165.034,202.566 160.701,204.9 156.5,207.5C 155.833,207.5 155.5,207.833 155.5,208.5C 155.167,208.5 154.833,208.5 154.5,208.5C 153.833,208.5 153.5,208.833 153.5,209.5C 152.833,209.833 152.167,210.167 151.5,210.5C 150.833,210.5 150.5,210.833 150.5,211.5C 150.167,211.5 149.833,211.5 149.5,211.5C 148.833,211.5 148.5,211.833 148.5,212.5C 147.508,212.328 146.842,212.662 146.5,213.5C 145.833,213.5 145.5,213.833 145.5,214.5C 145.167,214.5 144.833,214.5 144.5,214.5C 143.833,214.5 143.5,214.833 143.5,215.5C 142.508,215.328 141.842,215.662 141.5,216.5C 140.833,216.5 140.5,216.833 140.5,217.5C 139.508,217.328 138.842,217.662 138.5,218.5C 137.508,218.328 136.842,218.662 136.5,219.5C 134.973,219.427 133.973,220.094 133.5,221.5C 130.55,222.308 127.883,223.642 125.5,225.5C 124.518,222.038 124.185,218.371 124.5,214.5C 131.472,210.011 138.472,205.511 145.5,201C 138.623,204.438 131.623,207.938 124.5,211.5C 124.5,208.167 124.5,204.833 124.5,201.5C 142.805,189.01 161.138,176.51 179.5,164C 160.998,173.591 142.665,183.757 124.5,194.5C 124.5,190.833 124.5,187.167 124.5,183.5C 131.516,179.662 138.183,175.328 144.5,170.5C 137.539,173.647 130.873,177.313 124.5,181.5C 124.294,177.102 124.627,172.768 125.5,168.5C 132.113,164.55 138.446,160.217 144.5,155.5C 145.167,155.5 145.5,155.167 145.5,154.5C 146.492,154.672 147.158,154.338 147.5,153.5C 148.167,153.5 148.5,153.167 148.5,152.5C 148.833,152.5 149.167,152.5 149.5,152.5C 150.167,152.5 150.5,152.167 150.5,151.5C 151.167,151.167 151.833,150.833 152.5,150.5C 153.167,150.5 153.5,150.167 153.5,149.5C 166.705,141.982 178.705,133.648 189.5,124.5C 168.139,136.845 146.806,149.178 125.5,161.5C 125.5,154.167 125.5,146.833 125.5,139.5C 144.045,127.067 162.378,114.401 180.5,101.5C 162.032,111.568 143.699,121.901 125.5,132.5C 125.5,128.833 125.5,125.167 125.5,121.5C 148.552,106.314 171.219,90.6474 193.5,74.5C 170.833,87.1667 148.167,99.8333 125.5,112.5C 125.5,101.5 125.5,90.5 125.5,79.5C 134.476,73.1852 143.143,66.5186 151.5,59.5C 142.86,64.1542 134.194,68.8208 125.5,73.5C 125.5,69.1667 125.5,64.8333 125.5,60.5C 132.625,55.2144 139.625,49.7144 146.5,44C 139.34,46.9132 132.34,50.4132 125.5,54.5C 120.871,33.727 128.538,20.3937 148.5,14.5C 146.474,17.5178 144.474,20.5178 142.5,23.5C 149.996,20.2552 156.996,16.2552 163.5,11.5C 164.492,11.6716 165.158,11.3382 165.5,10.5C 177.632,9.10306 189.632,8.76972 201.5,9.5 Z M 234.5,11.5 C 237.833,11.5 241.167,11.5 244.5,11.5C 230.834,20.0024 216.834,28.0024 202.5,35.5C 212.86,27.1467 223.527,19.1467 234.5,11.5 Z M 271.5,51.5 C 271.5,52.1667 271.833,52.5 272.5,52.5C 268.836,55.3346 264.836,57.668 260.5,59.5C 263.952,56.6007 267.618,53.9341 271.5,51.5 Z M 260.5,59.5 C 260.027,60.9063 259.027,61.573 257.5,61.5C 257.973,60.0937 258.973,59.427 260.5,59.5 Z M 136.5,219.5 C 136.027,220.906 135.027,221.573 133.5,221.5C 133.973,220.094 134.973,219.427 136.5,219.5 Z M 149.5,325.5 C 150.167,325.5 150.833,325.5 151.5,325.5C 151.027,326.906 150.027,327.573 148.5,327.5C 148.833,326.833 149.167,326.167 149.5,325.5 Z M 197.5,330.5 C 196.341,332.25 194.674,333.25 192.5,333.5C 193.659,331.75 195.326,330.75 197.5,330.5 Z M 192.5,333.5 C 189.35,336.579 185.683,338.913 181.5,340.5C 181.833,339.833 182.167,339.167 182.5,338.5C 185.55,336.308 188.883,334.642 192.5,333.5 Z"/></g>
<g><path style="opacity:0.946" fill="#9f0040" d="M 323.5,12.5 C 328.836,12.6096 333.503,14.2763 337.5,17.5C 323.949,29.5703 324.949,30.5703 340.5,20.5C 342.371,20.8588 343.871,21.8588 345,23.5C 347.287,26.0722 348.453,29.0722 348.5,32.5C 347.662,32.8417 347.328,33.5084 347.5,34.5C 348.167,34.1667 348.833,33.8333 349.5,33.5C 350.931,34.7804 351.598,36.4471 351.5,38.5C 344.978,38.8235 338.645,38.4902 332.5,37.5C 333.183,36.3559 332.849,36.3559 331.5,37.5C 322.026,38.7646 312.692,38.7646 303.5,37.5C 304.833,36.8333 305.833,35.8333 306.5,34.5C 304.326,34.7497 302.659,35.7497 301.5,37.5C 299.883,38.038 298.216,38.3713 296.5,38.5C 296.761,33.7747 298.095,29.4413 300.5,25.5C 308.337,21.4164 316.003,17.0831 323.5,12.5 Z M 306.5,34.5 C 305.833,35.8333 304.833,36.8333 303.5,37.5C 302.833,37.5 302.167,37.5 301.5,37.5C 302.659,35.7497 304.326,34.7497 306.5,34.5 Z"/></g>
<g><path style="opacity:0.939" fill="#9f0140" d="M 298.5,14.5 C 295.298,18.9085 292.632,23.5751 290.5,28.5C 286.725,29.8867 283.059,31.5534 279.5,33.5C 280.625,31.8712 281.959,30.3712 283.5,29C 282.473,28.4867 281.473,27.9867 280.5,27.5C 285.717,22.2114 291.717,17.8781 298.5,14.5 Z"/></g>
<g><path style="opacity:0.386" fill="#c6c6db" d="M 86.5,38.5 C 84.7354,39.4614 82.7354,39.7947 80.5,39.5C 82.32,37.5389 84.32,37.2056 86.5,38.5 Z"/></g>
<g><path style="opacity:1" fill="#e2b3d4" d="M 200.5,37.5 C 198.747,39.2225 196.747,40.7225 194.5,42C 193.241,42.9819 191.908,43.3152 190.5,43C 193.45,40.3607 196.783,38.5274 200.5,37.5 Z"/></g>
<g><path style="opacity:0.989" fill="#e1d1ec" d="M 260.5,40.5 C 260.5,41.5 260.5,42.5 260.5,43.5C 256.742,46.5571 252.742,49.3904 248.5,52C 240.926,56.4244 233.259,60.591 225.5,64.5C 236.637,55.7618 248.304,47.7618 260.5,40.5 Z"/></g>
<g><path style="opacity:0.876" fill="#9f0341" d="M 287.5,39.5 C 286.985,41.8945 286.319,44.2278 285.5,46.5C 281.317,48.7571 276.984,50.7571 272.5,52.5C 271.833,52.5 271.5,52.1667 271.5,51.5C 276.527,47.1467 281.86,43.1467 287.5,39.5 Z"/></g>
<g><path style="opacity:0.97" fill="#dfdff7" d="M 88.5,45.5 C 86.9019,47.6979 85.5686,50.0313 84.5,52.5C 89.0902,50.5606 93.4235,48.2272 97.5,45.5C 102.5,45.5 107.5,45.5 112.5,45.5C 112.5,47.1667 112.5,48.8333 112.5,50.5C 109.793,52.8432 107.126,55.1765 104.5,57.5C 107.45,56.6916 110.117,55.3582 112.5,53.5C 112.5,73.5 112.5,93.5 112.5,113.5C 111.833,113.5 111.5,113.833 111.5,114.5C 110.508,114.328 109.842,114.662 109.5,115.5C 97.9931,122.088 86.3264,128.421 74.5,134.5C 73.2092,130.601 73.2092,126.601 74.5,122.5C 78.3817,120.066 82.0484,117.399 85.5,114.5C 81.9829,116.424 78.3163,118.091 74.5,119.5C 73.2641,115.299 73.2641,110.965 74.5,106.5C 82.4285,101.568 89.7619,95.9008 96.5,89.5C 88.9306,93.0699 81.5972,97.0699 74.5,101.5C 73.256,96.9648 73.256,92.2981 74.5,87.5C 76.0269,87.573 77.0269,86.9063 77.5,85.5C 76.391,85.5569 75.391,85.8902 74.5,86.5C 73.5139,82.03 73.1805,77.3633 73.5,72.5C 74.5,72.1667 75.1667,71.5 75.5,70.5C 74.8333,70.5 74.1667,70.5 73.5,70.5C 71.7381,61.601 74.0714,54.101 80.5,48C 82.9088,46.2932 85.5755,45.4598 88.5,45.5 Z M 88.5,45.5 C 91.5,45.5 94.5,45.5 97.5,45.5C 93.4235,48.2272 89.0902,50.5606 84.5,52.5C 85.5686,50.0313 86.9019,47.6979 88.5,45.5 Z M 99.5,87.5 C 99.0269,88.9063 98.0269,89.573 96.5,89.5C 96.9731,88.0937 97.9731,87.427 99.5,87.5 Z M 88.5,112.5 C 88.0269,113.906 87.0269,114.573 85.5,114.5C 85.9731,113.094 86.9731,112.427 88.5,112.5 Z"/></g>
<g><path style="opacity:0.949" fill="#e1d7f1" d="M 125.5,60.5 C 125.5,58.5 125.5,56.5 125.5,54.5C 132.34,50.4132 139.34,46.9132 146.5,44C 139.625,49.7144 132.625,55.2144 125.5,60.5 Z"/></g>
<g><path style="opacity:1" fill="#c7c0d7" d="M 303.5,45.5 C 301.178,47.664 298.511,49.3307 295.5,50.5C 295.5,48.8333 295.5,47.1667 295.5,45.5C 298.167,45.5 300.833,45.5 303.5,45.5 Z"/></g>
<g><path style="opacity:0.996" fill="#9d1046" d="M 303.5,45.5 C 307.167,45.5 310.833,45.5 314.5,45.5C 309.033,49.0706 303.367,52.4039 297.5,55.5C 297.5,54.8333 297.167,54.5 296.5,54.5C 295.766,53.2921 295.433,51.9587 295.5,50.5C 298.511,49.3307 301.178,47.664 303.5,45.5 Z"/></g>
<g><path style="opacity:0.974" fill="#dcdaf2" d="M 314.5,45.5 C 320.167,45.5 325.833,45.5 331.5,45.5C 329.146,47.1878 327.146,49.1878 325.5,51.5C 315.694,57.2385 306.027,63.2385 296.5,69.5C 295.203,64.9335 295.203,60.2669 296.5,55.5C 296.833,55.5 297.167,55.5 297.5,55.5C 303.367,52.4039 309.033,49.0706 314.5,45.5 Z"/></g>
<g><path style="opacity:0.909" fill="#9d0642" d="M 331.5,45.5 C 336.833,45.5 342.167,45.5 347.5,45.5C 341.83,49.337 335.83,52.6704 329.5,55.5C 327.5,54.8333 326.167,53.5 325.5,51.5C 327.146,49.1878 329.146,47.1878 331.5,45.5 Z"/></g>
<g><path style="opacity:0.964" fill="#dfdff6" d="M 347.5,45.5 C 353.484,46.0742 359.484,46.4075 365.5,46.5C 364.71,47.4013 363.71,48.0679 362.5,48.5C 358.391,49.8744 355.057,52.2078 352.5,55.5C 333.651,66.4206 315.317,78.0873 297.5,90.5C 296.191,88.4294 295.525,85.9294 295.5,83C 295.548,80.0812 295.881,77.2479 296.5,74.5C 307.998,68.9214 318.998,62.588 329.5,55.5C 335.83,52.6704 341.83,49.337 347.5,45.5 Z"/></g>
<g><path style="opacity:0.785" fill="#a71749" d="M 362.5,48.5 C 360.638,52.7772 357.305,55.1106 352.5,55.5C 355.057,52.2078 358.391,49.8744 362.5,48.5 Z"/></g>
<g><path style="opacity:0.169" fill="#e1d4ee" d="M 151.5,59.5 C 152.002,57.9153 153.002,57.4153 154.5,58C 153.756,59.0386 152.756,59.5386 151.5,59.5 Z"/></g>
<g><path style="opacity:0.986" fill="#e1d9f2" d="M 151.5,59.5 C 143.143,66.5186 134.476,73.1852 125.5,79.5C 125.5,77.5 125.5,75.5 125.5,73.5C 134.194,68.8208 142.86,64.1542 151.5,59.5 Z"/></g>
<g><path style="opacity:0.635" fill="#e2d4ee" d="M 285.5,46.5 C 285.5,47.1667 285.5,47.8333 285.5,48.5C 266.61,58.7112 247.943,69.3779 229.5,80.5C 228.304,80.1543 228.304,79.6543 229.5,79C 236.719,74.2748 244.052,69.7748 251.5,65.5C 252.167,65.5 252.5,65.1667 252.5,64.5C 253.167,64.1667 253.833,63.8333 254.5,63.5C 255.167,63.5 255.5,63.1667 255.5,62.5C 256.492,62.6716 257.158,62.3382 257.5,61.5C 259.027,61.573 260.027,60.9063 260.5,59.5C 264.836,57.668 268.836,55.3346 272.5,52.5C 276.984,50.7571 281.317,48.7571 285.5,46.5 Z"/></g>
<g><path style="opacity:1" fill="#e29ec4" d="M 225.5,64.5 C 224.998,66.0847 223.998,66.5847 222.5,66C 223.244,64.9614 224.244,64.4614 225.5,64.5 Z"/></g>
<g><path style="opacity:1" fill="#e19fc4" d="M 193.5,74.5 C 194.002,72.9153 195.002,72.4153 196.5,73C 195.756,74.0386 194.756,74.5386 193.5,74.5 Z"/></g>
<g><path style="opacity:0.977" fill="#e0d6ef" d="M 282.5,72.5 C 282.702,74.9496 282.369,77.283 281.5,79.5C 280.833,79.5 280.5,79.8333 280.5,80.5C 279.833,80.5 279.5,80.8333 279.5,81.5C 279.167,81.5 278.833,81.5 278.5,81.5C 277.833,81.5 277.5,81.8333 277.5,82.5C 258.963,94.2694 239.963,105.269 220.5,115.5C 240.61,100.394 261.277,86.0609 282.5,72.5 Z"/></g>
<g><path style="opacity:1" fill="#e1d7f1" d="M 193.5,74.5 C 171.219,90.6474 148.552,106.314 125.5,121.5C 125.5,118.5 125.5,115.5 125.5,112.5C 148.167,99.8333 170.833,87.1667 193.5,74.5 Z"/></g>
<g><path style="opacity:1" fill="#ddc5e1" d="M 281.5,91.5 C 281.5,92.5 281.5,93.5 281.5,94.5C 280.508,94.3284 279.842,94.6618 279.5,95.5C 275.728,97.9339 271.728,99.9339 267.5,101.5C 271.865,97.8108 276.531,94.4775 281.5,91.5 Z"/></g>
<g><path style="opacity:1" fill="#e196be" d="M 180.5,101.5 C 181.002,99.9153 182.002,99.4153 183.5,100C 182.756,101.039 181.756,101.539 180.5,101.5 Z"/></g>
<g><path style="opacity:1" fill="#761b39" d="M 279.5,95.5 C 279.842,94.6618 280.508,94.3284 281.5,94.5C 281.815,98.3714 281.482,102.038 280.5,105.5C 280.813,101.958 280.479,98.6248 279.5,95.5 Z"/></g>
<g><path style="opacity:1" fill="#e292ba" d="M 267.5,101.5 C 265.397,104.125 262.73,105.625 259.5,106C 261.817,103.843 264.484,102.343 267.5,101.5 Z"/></g>
<g><path style="opacity:1" fill="#e1d4ef" d="M 280.5,106.5 C 280.5,108.5 280.5,110.5 280.5,112.5C 263.806,121.845 247.139,131.179 230.5,140.5C 246.812,128.675 263.479,117.342 280.5,106.5 Z"/></g>
<g><path style="opacity:0.976" fill="#e1d4ee" d="M 180.5,101.5 C 162.378,114.401 144.045,127.067 125.5,139.5C 125.5,137.167 125.5,134.833 125.5,132.5C 143.699,121.901 162.032,111.568 180.5,101.5 Z"/></g>
<g><path style="opacity:0.976" fill="#dfdff7" d="M 111.5,114.5 C 111.833,114.5 112.167,114.5 112.5,114.5C 112.5,128.833 112.5,143.167 112.5,157.5C 99.8333,164.5 87.1667,171.5 74.5,178.5C 73.2092,174.601 73.2092,170.601 74.5,166.5C 82.053,162.564 89.053,157.898 95.5,152.5C 88.3423,155.912 81.3423,159.578 74.5,163.5C 73.2156,155.629 73.2156,147.629 74.5,139.5C 86.6961,132.238 98.3627,124.238 109.5,115.5C 110.492,115.672 111.158,115.338 111.5,114.5 Z M 98.5,150.5 C 98.0269,151.906 97.0269,152.573 95.5,152.5C 95.9731,151.094 96.9731,150.427 98.5,150.5 Z"/></g>
<g><path style="opacity:1" fill="#e2a2c7" d="M 220.5,115.5 C 219.998,117.085 218.998,117.585 217.5,117C 218.244,115.961 219.244,115.461 220.5,115.5 Z"/></g>
<g><path style="opacity:1" fill="#e2c2e1" d="M 280.5,123.5 C 280.5,124.167 280.5,124.833 280.5,125.5C 275.66,128.587 270.66,131.087 265.5,133C 270.19,129.323 275.19,126.156 280.5,123.5 Z"/></g>
<g><path style="opacity:0.937" fill="#e1d7f1" d="M 153.5,149.5 C 152.833,149.5 152.5,149.833 152.5,150.5C 151.833,150.833 151.167,151.167 150.5,151.5C 149.833,151.5 149.5,151.833 149.5,152.5C 149.167,152.5 148.833,152.5 148.5,152.5C 147.833,152.5 147.5,152.833 147.5,153.5C 146.508,153.328 145.842,153.662 145.5,154.5C 144.833,154.5 144.5,154.833 144.5,155.5C 138.036,158.566 131.702,161.899 125.5,165.5C 125.5,164.167 125.5,162.833 125.5,161.5C 146.806,149.178 168.139,136.845 189.5,124.5C 178.705,133.648 166.705,141.982 153.5,149.5 Z"/></g>
<g><path style="opacity:1" fill="#e1d1ec" d="M 280.5,136.5 C 280.5,138.5 280.5,140.5 280.5,142.5C 263.669,152.575 246.669,162.075 229.5,171C 246.529,159.49 263.529,147.99 280.5,136.5 Z"/></g>
<g><path style="opacity:1" fill="#e198bf" d="M 230.5,140.5 C 229.335,142.416 227.668,143.249 225.5,143C 226.91,141.628 228.577,140.795 230.5,140.5 Z"/></g>
<g><path style="opacity:1" fill="#ddbdda" d="M 281.5,152.5 C 281.5,153.5 281.5,154.5 281.5,155.5C 277.684,156.909 274.017,158.576 270.5,160.5C 273.952,157.601 277.618,154.934 281.5,152.5 Z"/></g>
<g><path style="opacity:0.956" fill="#dfdff7" d="M 112.5,159.5 C 112.5,164.167 112.5,168.833 112.5,173.5C 99.798,180.848 87.1313,188.182 74.5,195.5C 73.2641,191.299 73.2641,186.965 74.5,182.5C 87.1667,174.833 99.8333,167.167 112.5,159.5 Z"/></g>
<g><path style="opacity:1" fill="#e19ac0" d="M 270.5,160.5 C 269.335,162.416 267.668,163.249 265.5,163C 266.91,161.628 268.577,160.795 270.5,160.5 Z"/></g>
<g><path style="opacity:1" fill="#e1d6f0" d="M 281.5,166.5 C 281.5,169.167 281.5,171.833 281.5,174.5C 260.816,186.195 240.15,197.861 219.5,209.5C 239.61,194.394 260.277,180.061 281.5,166.5 Z"/></g>
<g><path style="opacity:1" fill="#e198bf" d="M 144.5,170.5 C 145.002,168.915 146.002,168.415 147.5,169C 146.756,170.039 145.756,170.539 144.5,170.5 Z"/></g>
<g><path style="opacity:1" fill="#ded1eb" d="M 124.5,201.5 C 124.5,199.167 124.5,196.833 124.5,194.5C 142.665,183.757 160.998,173.591 179.5,164C 161.138,176.51 142.805,189.01 124.5,201.5 Z"/></g>
<g><path style="opacity:1" fill="#dec7e3" d="M 144.5,170.5 C 138.183,175.328 131.516,179.662 124.5,183.5C 124.5,182.833 124.5,182.167 124.5,181.5C 130.873,177.313 137.539,173.647 144.5,170.5 Z"/></g>
<g><path style="opacity:0.958" fill="#dfdff7" d="M 112.5,178.5 C 112.5,183.5 112.5,188.5 112.5,193.5C 99.5388,199.98 86.8722,206.98 74.5,214.5C 73.2092,210.601 73.2092,206.601 74.5,202.5C 86.9173,194.078 99.5839,186.078 112.5,178.5 Z"/></g>
<g><path style="opacity:1" fill="#e0c5e2" d="M 282.5,184.5 C 282.5,185.833 282.5,187.167 282.5,188.5C 273.199,193.649 263.866,198.482 254.5,203C 263.69,196.575 273.024,190.408 282.5,184.5 Z"/></g>
<g><path style="opacity:0.972" fill="#dfdff6" d="M 112.5,195.5 C 112.5,207.5 112.5,219.5 112.5,231.5C 99.8333,238.833 87.1667,246.167 74.5,253.5C 73.1809,242.265 73.1809,230.931 74.5,219.5C 87.1667,211.5 99.8333,203.5 112.5,195.5 Z"/></g>
<g><path style="opacity:0.965" fill="#e1b9d9" d="M 169.5,200.5 C 170.002,198.915 171.002,198.415 172.5,199C 171.756,200.039 170.756,200.539 169.5,200.5 Z"/></g>
<g><path style="opacity:0.971" fill="#e0e0f8" d="M 428.5,49.5 C 397.544,68.4722 366.877,87.8055 336.5,107.5C 368.834,89.6689 400.834,71.3356 432.5,52.5C 435.405,54.756 437.072,57.756 437.5,61.5C 408.295,79.5973 379.295,97.9306 350.5,116.5C 379.671,100.083 408.671,83.416 437.5,66.5C 438.791,70.3989 438.791,74.3989 437.5,78.5C 436.833,78.5 436.5,78.8333 436.5,79.5C 424.292,86.097 412.625,93.4303 401.5,101.5C 413.326,95.4208 424.993,89.0875 436.5,82.5C 437.787,86.0649 437.787,89.7316 436.5,93.5C 437.694,97.4372 437.694,101.771 436.5,106.5C 415.655,118.419 395.321,131.085 375.5,144.5C 395.995,133.42 416.328,122.087 436.5,110.5C 437.787,114.065 437.787,117.732 436.5,121.5C 417.961,132.931 399.628,144.597 381.5,156.5C 399.968,146.432 418.301,136.099 436.5,125.5C 437.812,133.068 437.812,140.735 436.5,148.5C 437.694,152.437 437.694,156.771 436.5,161.5C 398.126,185.014 360.126,209.014 322.5,233.5C 360.798,212.351 398.798,190.684 436.5,168.5C 436.833,176.333 436.833,184.333 436.5,192.5C 396.21,217.472 356.21,242.806 316.5,268.5C 356.5,245.833 396.5,223.167 436.5,200.5C 437.787,204.065 437.787,207.732 436.5,211.5C 435.5,211.833 434.833,212.5 434.5,213.5C 435.167,213.5 435.833,213.5 436.5,213.5C 437.787,217.065 437.787,220.732 436.5,224.5C 437.8,228.399 437.8,232.732 436.5,237.5C 404.156,257.003 372.156,277.003 340.5,297.5C 372.5,279.5 404.5,261.5 436.5,243.5C 437.787,247.065 437.787,250.732 436.5,254.5C 403.544,274.806 370.877,295.472 338.5,316.5C 371.407,298.261 404.074,279.594 436.5,260.5C 437.791,264.399 437.791,268.399 436.5,272.5C 398.792,295.681 361.459,319.347 324.5,343.5C 323.508,343.328 322.842,343.662 322.5,344.5C 320.973,344.427 319.973,345.094 319.5,346.5C 318.508,346.328 317.842,346.662 317.5,347.5C 316.833,347.5 316.5,347.833 316.5,348.5C 316.5,349.167 316.167,349.5 315.5,349.5C 315.167,348.167 314.833,348.167 314.5,349.5C 313.508,349.328 312.842,349.662 312.5,350.5C 311.833,350.5 311.5,350.833 311.5,351.5C 311.167,351.5 310.833,351.5 310.5,351.5C 309.833,351.5 309.5,351.833 309.5,352.5C 308.833,352.5 308.5,352.833 308.5,353.5C 308.167,353.5 307.833,353.5 307.5,353.5C 306.833,353.5 306.5,353.833 306.5,354.5C 306.167,354.5 305.833,354.5 305.5,354.5C 304.167,354.833 304.167,355.167 305.5,355.5C 304.791,356.404 303.791,356.737 302.5,356.5C 302.167,356.5 301.833,356.5 301.5,356.5C 300.145,358.929 298.478,360.262 296.5,360.5C 295.644,271.057 295.644,181.39 296.5,91.5C 297.167,91.5 297.5,91.1667 297.5,90.5C 323.337,76.0828 349.004,61.4162 374.5,46.5C 385.157,44.5718 395.823,43.9052 406.5,44.5C 414.459,44.0406 421.792,45.7073 428.5,49.5 Z M 374.5,160.5 C 374.027,161.906 373.027,162.573 371.5,162.5C 371.973,161.094 372.973,160.427 374.5,160.5 Z M 381.5,156.5 C 380.341,158.25 378.674,159.25 376.5,159.5C 377.659,157.75 379.326,156.75 381.5,156.5 Z M 375.5,144.5 C 374.341,146.25 372.674,147.25 370.5,147.5C 371.659,145.75 373.326,144.75 375.5,144.5 Z M 348.5,117.5 C 348.027,118.906 347.027,119.573 345.5,119.5C 345.973,118.094 346.973,117.427 348.5,117.5 Z M 336.5,107.5 C 336.027,108.906 335.027,109.573 333.5,109.5C 333.973,108.094 334.973,107.427 336.5,107.5 Z M 394.5,105.5 C 394.027,106.906 393.027,107.573 391.5,107.5C 391.973,106.094 392.973,105.427 394.5,105.5 Z M 401.5,101.5 C 400.341,103.25 398.674,104.25 396.5,104.5C 397.659,102.75 399.326,101.75 401.5,101.5 Z M 322.5,233.5 C 321.341,235.25 319.674,236.25 317.5,236.5C 318.659,234.75 320.326,233.75 322.5,233.5 Z M 316.5,268.5 C 316.027,269.906 315.027,270.573 313.5,270.5C 313.973,269.094 314.973,268.427 316.5,268.5 Z M 340.5,297.5 C 339.341,299.25 337.674,300.25 335.5,300.5C 336.659,298.75 338.326,297.75 340.5,297.5 Z M 336.5,317.5 C 336.027,318.906 335.027,319.573 333.5,319.5C 333.973,318.094 334.973,317.427 336.5,317.5 Z"/></g>
<g><path style="opacity:1" fill="#ddc4e0" d="M 124.5,214.5 C 124.5,213.5 124.5,212.5 124.5,211.5C 131.623,207.938 138.623,204.438 145.5,201C 138.472,205.511 131.472,210.011 124.5,214.5 Z"/></g>
<g><path style="opacity:1" fill="#e298bf" d="M 219.5,209.5 C 218.335,211.416 216.668,212.249 214.5,212C 215.91,210.628 217.577,209.795 219.5,209.5 Z"/></g>
<g><path style="opacity:1" fill="#e2cbe7" d="M 282.5,198.5 C 282.5,199.833 282.5,201.167 282.5,202.5C 270.335,209.91 258.002,216.743 245.5,223C 257.862,214.823 270.195,206.656 282.5,198.5 Z"/></g>
<g><path style="opacity:0.891" fill="#ded7ef" d="M 169.5,200.5 C 154.798,211.191 139.798,221.524 124.5,231.5C 124.366,229.708 124.699,228.042 125.5,226.5C 128.511,225.331 131.178,223.664 133.5,221.5C 135.027,221.573 136.027,220.906 136.5,219.5C 137.492,219.672 138.158,219.338 138.5,218.5C 139.492,218.672 140.158,218.338 140.5,217.5C 141.167,217.5 141.5,217.167 141.5,216.5C 142.492,216.672 143.158,216.338 143.5,215.5C 144.167,215.5 144.5,215.167 144.5,214.5C 144.833,214.5 145.167,214.5 145.5,214.5C 146.167,214.5 146.5,214.167 146.5,213.5C 147.492,213.672 148.158,213.338 148.5,212.5C 149.167,212.5 149.5,212.167 149.5,211.5C 149.833,211.5 150.167,211.5 150.5,211.5C 151.167,211.5 151.5,211.167 151.5,210.5C 152.167,210.167 152.833,209.833 153.5,209.5C 154.167,209.5 154.5,209.167 154.5,208.5C 154.833,208.5 155.167,208.5 155.5,208.5C 156.167,208.5 156.5,208.167 156.5,207.5C 160.701,204.9 165.034,202.566 169.5,200.5 Z"/></g>
<g><path style="opacity:0.881" fill="#dfd5ee" d="M 124.5,263.5 C 125.833,260.5 125.833,257.5 124.5,254.5C 145.941,242.61 167.275,230.443 188.5,218C 189.759,217.018 191.092,216.685 192.5,217C 169.978,232.757 147.311,248.257 124.5,263.5 Z"/></g>
<g><path style="opacity:1" fill="#822844" d="M 283.5,222.5 C 284.43,226.4 284.763,230.4 284.5,234.5C 284.167,234.5 283.833,234.5 283.5,234.5C 284.029,230.649 283.362,227.149 281.5,224C 282.044,223.283 282.711,222.783 283.5,222.5 Z"/></g>
<g><path style="opacity:0.973" fill="#dfdff7" d="M 112.5,235.5 C 112.5,240.167 112.5,244.833 112.5,249.5C 99.8504,256.472 87.1837,263.472 74.5,270.5C 73.2092,266.601 73.2092,262.601 74.5,258.5C 87.1493,250.86 99.816,243.194 112.5,235.5 Z"/></g>
<g><path style="opacity:1" fill="#e0c6e2" d="M 283.5,234.5 C 283.833,234.5 284.167,234.5 284.5,234.5C 284.5,235.5 284.5,236.5 284.5,237.5C 276.054,242.106 267.721,246.939 259.5,252C 258.241,252.982 256.908,253.315 255.5,253C 264.69,246.575 274.024,240.408 283.5,234.5 Z"/></g>
<g><path style="opacity:1" fill="#e1d2ed" d="M 284.5,248.5 C 284.5,250.167 284.5,251.833 284.5,253.5C 269.406,262.595 254.073,271.262 238.5,279.5C 253.282,268.391 268.616,258.057 284.5,248.5 Z"/></g>
<g><path style="opacity:0.957" fill="#dfdff6" d="M 112.5,252.5 C 112.5,257.167 112.5,261.833 112.5,266.5C 99.8504,273.472 87.1837,280.472 74.5,287.5C 73.2092,283.601 73.2092,279.601 74.5,275.5C 87.1493,267.86 99.816,260.194 112.5,252.5 Z"/></g>
<g><path style="opacity:1" fill="#e19ac0" d="M 160.5,268.5 C 161.002,266.915 162.002,266.415 163.5,267C 162.756,268.039 161.756,268.539 160.5,268.5 Z"/></g>
<g><path style="opacity:0.949" fill="#dfdff6" d="M 112.5,267.5 C 112.803,276.251 112.47,284.918 111.5,293.5C 99.0043,300.247 86.6709,307.247 74.5,314.5C 73.2092,310.601 73.2092,306.601 74.5,302.5C 73.2092,298.601 73.2092,294.601 74.5,290.5C 87.1667,282.833 99.8333,275.167 112.5,267.5 Z"/></g>
<g><path style="opacity:1" fill="#dfcbe7" d="M 124.5,277.5 C 124.5,276.5 124.5,275.5 124.5,274.5C 133.133,270.183 141.467,265.35 149.5,260C 150.759,259.018 152.092,258.685 153.5,259C 143.932,265.417 134.265,271.583 124.5,277.5 Z"/></g>
<g><path style="opacity:1" fill="#e29fc5" d="M 238.5,279.5 C 237.998,281.085 236.998,281.585 235.5,281C 236.244,279.961 237.244,279.461 238.5,279.5 Z"/></g>
<g><path style="opacity:0.983" fill="#e0e0f8" d="M 436.5,279.5 C 437.791,283.399 437.791,287.399 436.5,291.5C 435.833,291.5 435.5,291.833 435.5,292.5C 436.787,293.871 437.453,295.705 437.5,298C 437.389,307.903 437.056,317.736 436.5,327.5C 437.804,345.122 437.804,363.122 436.5,381.5C 422.623,390.599 408.956,399.932 395.5,409.5C 409.301,402.099 422.968,394.432 436.5,386.5C 437.736,390.701 437.736,395.035 436.5,399.5C 426.976,404.759 417.976,410.759 409.5,417.5C 418.634,412.766 427.634,407.766 436.5,402.5C 437.736,406.701 437.736,411.035 436.5,415.5C 429.887,419.45 423.554,423.783 417.5,428.5C 423.964,425.434 430.298,422.101 436.5,418.5C 437.794,422.733 437.794,427.066 436.5,431.5C 427.859,437.481 419.525,443.814 411.5,450.5C 419.968,446.099 428.301,441.432 436.5,436.5C 437.794,440.733 437.794,445.066 436.5,449.5C 435.167,450.167 434.167,451.167 433.5,452.5C 434.609,452.443 435.609,452.11 436.5,451.5C 437.797,456.066 437.797,460.733 436.5,465.5C 434.833,466.5 433.5,467.833 432.5,469.5C 433.833,469.167 435.167,468.833 436.5,468.5C 437.651,473.65 437.817,478.984 437,484.5C 437.747,491.177 435.247,496.01 429.5,499C 423.984,499.817 418.65,499.651 413.5,498.5C 416.04,495.272 418.707,492.105 421.5,489C 415.143,491.347 409.143,494.513 403.5,498.5C 396.371,499.777 389.371,499.777 382.5,498.5C 387.821,494.511 392.821,490.178 397.5,485.5C 389.829,489.333 382.496,493.666 375.5,498.5C 368.358,499.738 361.358,499.738 354.5,498.5C 358.482,495.848 362.149,492.848 365.5,489.5C 359.835,491.997 354.502,494.997 349.5,498.5C 342.371,499.777 335.371,499.777 328.5,498.5C 340.383,490.065 352.05,481.399 363.5,472.5C 348.002,480.412 333.002,489.079 318.5,498.5C 311.371,499.777 304.371,499.777 297.5,498.5C 307.135,492.189 316.468,485.523 325.5,478.5C 313.663,484.917 301.996,491.584 290.5,498.5C 283.371,499.777 276.371,499.777 269.5,498.5C 282.13,490.525 294.463,482.192 306.5,473.5C 291.667,481.079 277.334,489.413 263.5,498.5C 256.358,499.738 249.358,499.738 242.5,498.5C 259.87,486.82 277.204,475.154 294.5,463.5C 273.904,474.775 253.571,486.442 233.5,498.5C 202.373,499.821 171.373,499.821 140.5,498.5C 141.183,497.356 140.849,497.356 139.5,498.5C 123.643,498.965 107.81,499.298 92,499.5C 89.8333,499.333 87.6667,499.167 85.5,499C 84.6195,498.292 83.9528,497.458 83.5,496.5C 86.8708,494.154 90.2041,491.821 93.5,489.5C 89.3447,490.742 85.678,492.742 82.5,495.5C 79.2633,493.37 77.2633,490.37 76.5,486.5C 114.874,462.986 152.874,438.986 190.5,414.5C 151.996,436.251 113.662,458.251 75.5,480.5C 73.9177,477.124 73.2511,473.458 73.5,469.5C 107.207,448.986 140.54,427.986 173.5,406.5C 140.184,425.472 106.85,444.472 73.5,463.5C 72.5184,460.038 72.185,456.371 72.5,452.5C 107.123,431.194 141.456,409.528 175.5,387.5C 141.031,406.902 106.698,426.569 72.5,446.5C 72.1981,438.082 72.5314,429.748 73.5,421.5C 75.674,421.25 77.3406,420.25 78.5,418.5C 76.7162,418.893 75.0495,419.559 73.5,420.5C 72.2737,416.633 72.2737,412.633 73.5,408.5C 87.8333,399.833 102.167,391.167 116.5,382.5C 118.731,385.031 121.564,386.365 125,386.5C 134.04,384.564 141.874,380.397 148.5,374C 159.076,362.952 169.743,352.119 180.5,341.5C 181.167,341.5 181.5,341.167 181.5,340.5C 185.683,338.913 189.35,336.579 192.5,333.5C 194.674,333.25 196.341,332.25 197.5,330.5C 198.492,330.672 199.158,330.338 199.5,329.5C 200.167,329.5 200.5,329.167 200.5,328.5C 201.492,328.672 202.158,328.338 202.5,327.5C 203.492,327.672 204.158,327.338 204.5,326.5C 205.167,326.5 205.5,326.167 205.5,325.5C 206.492,325.672 207.158,325.338 207.5,324.5C 208.167,324.5 208.5,324.167 208.5,323.5C 223.938,339.438 239.604,355.272 255.5,371C 260.833,375 266.167,379 271.5,383C 277.48,385.947 283.48,386.113 289.5,383.5C 291.774,381.287 293.274,378.621 294,375.5C 294.872,370.459 295.706,365.459 296.5,360.5C 298.478,360.262 300.145,358.929 301.5,356.5C 301.833,357.833 302.167,357.833 302.5,356.5C 303.791,356.737 304.791,356.404 305.5,355.5C 305.5,355.167 305.5,354.833 305.5,354.5C 305.833,354.5 306.167,354.5 306.5,354.5C 307.167,354.5 307.5,354.167 307.5,353.5C 307.833,353.5 308.167,353.5 308.5,353.5C 309.167,353.5 309.5,353.167 309.5,352.5C 310.167,352.5 310.5,352.167 310.5,351.5C 310.833,351.5 311.167,351.5 311.5,351.5C 312.167,351.5 312.5,351.167 312.5,350.5C 313.492,350.672 314.158,350.338 314.5,349.5C 314.833,349.5 315.167,349.5 315.5,349.5C 316.167,349.5 316.5,349.167 316.5,348.5C 317.167,348.5 317.5,348.167 317.5,347.5C 318.492,347.672 319.158,347.338 319.5,346.5C 321.027,346.573 322.027,345.906 322.5,344.5C 323.492,344.672 324.158,344.338 324.5,343.5C 362.074,322.594 399.407,301.261 436.5,279.5 Z M 435.5,292.5 C 434.341,294.25 432.674,295.25 430.5,295.5C 431.659,293.75 433.326,292.75 435.5,292.5 Z M 430.5,295.5 C 429.341,297.25 427.674,298.25 425.5,298.5C 426.659,296.75 428.326,295.75 430.5,295.5 Z M 322.5,344.5 C 322.027,345.906 321.027,346.573 319.5,346.5C 319.973,345.094 320.973,344.427 322.5,344.5 Z M 180.5,384.5 C 180.027,385.906 179.027,386.573 177.5,386.5C 177.973,385.094 178.973,384.427 180.5,384.5 Z M 178.5,403.5 C 178.027,404.906 177.027,405.573 175.5,405.5C 175.973,404.094 176.973,403.427 178.5,403.5 Z M 395.5,409.5 C 395.027,410.906 394.027,411.573 392.5,411.5C 392.973,410.094 393.973,409.427 395.5,409.5 Z M 195.5,411.5 C 194.341,413.25 192.674,414.25 190.5,414.5C 191.659,412.75 193.326,411.75 195.5,411.5 Z M 417.5,428.5 C 417.027,429.906 416.027,430.573 414.5,430.5C 414.973,429.094 415.973,428.427 417.5,428.5 Z M 297.5,461.5 C 297.027,462.906 296.027,463.573 294.5,463.5C 294.973,462.094 295.973,461.427 297.5,461.5 Z M 294.5,463.5 C 277.204,475.154 259.87,486.82 242.5,498.5C 239.5,498.5 236.5,498.5 233.5,498.5C 253.571,486.442 273.904,474.775 294.5,463.5 Z M 363.5,472.5 C 352.05,481.399 340.383,490.065 328.5,498.5C 325.167,498.5 321.833,498.5 318.5,498.5C 333.002,489.079 348.002,480.412 363.5,472.5 Z M 306.5,473.5 C 294.463,482.192 282.13,490.525 269.5,498.5C 267.5,498.5 265.5,498.5 263.5,498.5C 277.334,489.413 291.667,481.079 306.5,473.5 Z M 325.5,478.5 C 316.468,485.523 307.135,492.189 297.5,498.5C 295.167,498.5 292.833,498.5 290.5,498.5C 301.996,491.584 313.663,484.917 325.5,478.5 Z M 101.5,484.5 C 101.027,485.906 100.027,486.573 98.5,486.5C 98.9731,485.094 99.9731,484.427 101.5,484.5 Z M 397.5,485.5 C 392.821,490.178 387.821,494.511 382.5,498.5C 380.167,498.5 377.833,498.5 375.5,498.5C 382.496,493.666 389.829,489.333 397.5,485.5 Z M 98.5,486.5 C 97.3406,488.25 95.674,489.25 93.5,489.5C 94.6594,487.75 96.326,486.75 98.5,486.5 Z M 368.5,487.5 C 368.027,488.906 367.027,489.573 365.5,489.5C 365.973,488.094 366.973,487.427 368.5,487.5 Z M 413.5,498.5 C 410.167,498.5 406.833,498.5 403.5,498.5C 409.143,494.513 415.143,491.347 421.5,489C 418.707,492.105 416.04,495.272 413.5,498.5 Z M 365.5,489.5 C 362.149,492.848 358.482,495.848 354.5,498.5C 352.833,498.5 351.167,498.5 349.5,498.5C 354.502,494.997 359.835,491.997 365.5,489.5 Z"/></g>
<g><path style="opacity:1" fill="#dfc9e5" d="M 160.5,268.5 C 149.044,276.734 137.378,284.734 125.5,292.5C 125.167,292.5 124.833,292.5 124.5,292.5C 124.5,291.167 124.5,289.833 124.5,288.5C 136.527,281.821 148.527,275.155 160.5,268.5 Z"/></g>
<g><path style="opacity:0.948" fill="#dfdff6" d="M 111.5,295.5 C 112.797,300.066 112.797,304.733 111.5,309.5C 98.9964,316.25 86.663,323.25 74.5,330.5C 73.2092,326.601 73.2092,322.601 74.5,318.5C 87.0012,311.084 99.3345,303.417 111.5,295.5 Z"/></g>
<g><path style="opacity:1" fill="#cdb3ce" d="M 284.5,305.5 C 284.737,306.791 284.404,307.791 283.5,308.5C 282.399,309.8 281.066,310.3 279.5,310C 281.037,308.293 282.704,306.793 284.5,305.5 Z"/></g>
<g><path style="opacity:0.968" fill="#dfdff7" d="M 111.5,310.5 C 112.495,322.655 112.829,334.989 112.5,347.5C 100.302,354.765 87.9684,361.765 75.5,368.5C 75.5,364.833 75.5,361.167 75.5,357.5C 76.5,357.167 77.1667,356.5 77.5,355.5C 76.8333,355.5 76.1667,355.5 75.5,355.5C 74.5955,353.362 73.9289,351.029 73.5,348.5C 73.3104,343.57 73.6438,338.57 74.5,333.5C 87.1038,326.222 99.4371,318.555 111.5,310.5 Z"/></g>
<g><path style="opacity:0.278" fill="#e29bc2" d="M 169.5,312.5 C 171.975,312.747 171.975,313.413 169.5,314.5C 168.537,314.03 168.537,313.363 169.5,312.5 Z"/></g>
<g><path style="opacity:1" fill="#a12b4e" d="M 124.5,292.5 C 124.833,292.5 125.167,292.5 125.5,292.5C 124.895,299.618 125.562,306.452 127.5,313C 127,313.5 126.5,314 126,314.5C 125.502,317.817 125.335,321.15 125.5,324.5C 125.5,325.167 125.167,325.5 124.5,325.5C 124.5,314.5 124.5,303.5 124.5,292.5 Z"/></g>
<g><path style="opacity:0.4" fill="#e4cce9" d="M 158.5,320.5 C 159.665,318.584 161.332,317.751 163.5,318C 162.09,319.372 160.423,320.205 158.5,320.5 Z"/></g>
<g><path style="opacity:0.898" fill="#e0cae6" d="M 124.5,328.5 C 124.5,327.5 124.5,326.5 124.5,325.5C 125.167,325.5 125.5,325.167 125.5,324.5C 134.133,320.183 142.467,315.35 150.5,310C 151.759,309.018 153.092,308.685 154.5,309C 144.617,315.723 134.617,322.223 124.5,328.5 Z"/></g>
<g><path style="opacity:1" fill="#d1416a" d="M 204.5,318.5 C 202.15,319.861 199.816,321.194 197.5,322.5C 199.086,319.139 201.419,317.806 204.5,318.5 Z"/></g>
<g><path style="opacity:0.939" fill="#dfdef6" d="M 204.5,318.5 C 205.833,320.167 207.167,321.833 208.5,323.5C 207.833,323.5 207.5,323.833 207.5,324.5C 206.508,324.328 205.842,324.662 205.5,325.5C 204.833,325.5 204.5,325.833 204.5,326.5C 203.508,326.328 202.842,326.662 202.5,327.5C 201.508,327.328 200.842,327.662 200.5,328.5C 199.833,328.5 199.5,328.833 199.5,329.5C 198.508,329.328 197.842,329.662 197.5,330.5C 195.326,330.75 193.659,331.75 192.5,333.5C 188.883,334.642 185.55,336.308 182.5,338.5C 186.801,332.531 191.801,327.198 197.5,322.5C 199.816,321.194 202.15,319.861 204.5,318.5 Z"/></g>
<g><path style="opacity:0.027" fill="#dfcceb" d="M 156.5,321.5 C 156.5,321.833 156.5,322.167 156.5,322.5C 155.833,322.5 155.5,322.833 155.5,323.5C 154.508,323.328 153.842,323.662 153.5,324.5C 152.833,324.5 152.167,324.5 151.5,324.5C 152.659,322.75 154.326,321.75 156.5,321.5 Z"/></g>
<g><path style="opacity:1" fill="#e2b7d8" d="M 282.5,323.5 C 282.5,323.833 282.5,324.167 282.5,324.5C 281.125,326.07 279.459,326.903 277.5,327C 278.789,325.198 280.456,324.031 282.5,323.5 Z"/></g>
<g><path style="opacity:0.031" fill="#e1cce9" d="M 149.5,325.5 C 149.167,326.167 148.833,326.833 148.5,327.5C 147.167,327.833 145.833,328.167 144.5,328.5C 145.659,326.75 147.326,325.75 149.5,325.5 Z"/></g>
<g><path style="opacity:0.373" fill="#e5d1ea" d="M 144.5,328.5 C 143.341,330.25 141.674,331.25 139.5,331.5C 140.659,329.75 142.326,328.75 144.5,328.5 Z"/></g>
<g><path style="opacity:1" fill="#e1accf" d="M 169.5,330.5 C 170.002,328.915 171.002,328.415 172.5,329C 171.756,330.039 170.756,330.539 169.5,330.5 Z"/></g>
<g><path style="opacity:1" fill="#e1c4e1" d="M 237.5,333.5 C 236.662,333.158 236.328,332.492 236.5,331.5C 240.47,328.972 244.47,326.805 248.5,325C 244.957,328.049 241.291,330.882 237.5,333.5 Z"/></g>
<g><path style="opacity:0.412" fill="#e4ceea" d="M 137.5,332.5 C 136.341,334.25 134.674,335.25 132.5,335.5C 133.659,333.75 135.326,332.75 137.5,332.5 Z"/></g>
<g><path style="opacity:0.024" fill="#ddcaea" d="M 130.5,336.5 C 129.341,338.25 127.674,339.25 125.5,339.5C 126.659,337.75 128.326,336.75 130.5,336.5 Z"/></g>
<g><path style="opacity:0.976" fill="#e1d2ed" d="M 169.5,330.5 C 155.13,340.858 140.464,350.858 125.5,360.5C 125.5,358.833 125.5,357.167 125.5,355.5C 139.834,346.664 154.5,338.331 169.5,330.5 Z"/></g>
<g><path style="opacity:1" fill="#ddcbe6" d="M 247.5,344.5 C 246.167,343.833 245.167,342.833 244.5,341.5C 258.723,331.437 259.723,332.437 247.5,344.5 Z"/></g>
<g><path style="opacity:1" fill="#dbb1d1" d="M 254.5,352.5 C 253.833,352.5 253.5,352.167 253.5,351.5C 256.656,350.228 256.989,350.561 254.5,352.5 Z"/></g>
<g><path style="opacity:0.957" fill="#e0e0f8" d="M 112.5,353.5 C 111.966,362.002 112.633,370.336 114.5,378.5C 101.167,385.833 87.8333,393.167 74.5,400.5C 74.2271,392.112 74.5604,383.779 75.5,375.5C 87.9985,368.418 100.332,361.085 112.5,353.5 Z"/></g>
<g><path style="opacity:1" fill="#ddcee8" d="M 273.5,371.5 C 272.5,369.833 271.167,368.5 269.5,367.5C 272.021,365.981 274.521,364.314 277,362.5C 276.425,365.663 275.258,368.663 273.5,371.5 Z"/></g>
<g><path style="opacity:0.918" fill="#d7d7ed" d="M 78.5,503.5 C 81.8599,503.616 85.1933,503.949 88.5,504.5C 86.3122,506.755 83.6455,507.589 80.5,507C 79.1772,506.184 78.5106,505.017 78.5,503.5 Z"/></g>
<g><path style="opacity:0.741" fill="#e0e0f7" d="M 98.5,505.5 C 101.059,505.198 103.393,505.532 105.5,506.5C 102.784,508.086 100.45,507.753 98.5,505.5 Z"/></g>
<g><path style="opacity:0.473" fill="#cecee3" d="M 328.5,506.5 C 330.833,505.167 333.167,505.167 335.5,506.5C 333.126,507.686 330.792,507.686 328.5,506.5 Z"/></g>
<g><path style="opacity:0.222" fill="#c8c8e1" d="M 353.5,506.5 C 355.833,505.167 358.167,505.167 360.5,506.5C 358.167,507.833 355.833,507.833 353.5,506.5 Z"/></g>
</svg>
